<?xml version="1.0" encoding="iso-8859-1"?>
<!-- Uploaded to: SVG Repo, www.svgrepo.com, Generator: SVG Repo Mixer Tools -->
<!DOCTYPE svg PUBLIC "-//W3C//DTD SVG 1.1//EN" "http://www.w3.org/Graphics/SVG/1.1/DTD/svg11.dtd">
<svg fill="#000000" height="800px" width="800px" version="1.1" id="Capa_1" xmlns="http://www.w3.org/2000/svg" xmlns:xlink="http://www.w3.org/1999/xlink" 
	 viewBox="0 0 213.367 213.367" xml:space="preserve">
<path d="M187.564,213.367H25.803c-2.209,0-4-1.791-4-4V4c0-2.209,1.791-4,4-4h161.761c2.209,0,4,1.791,4,4v205.367
	C191.564,211.576,189.773,213.367,187.564,213.367z M29.803,205.367h153.761V8H29.803V205.367z M146.961,197.867
	c-0.919,0-1.819-0.317-2.541-0.911c-0.924-0.76-1.459-1.893-1.459-3.089v-2.459l-12.875-1.571c-1.165-0.143-2.209-0.789-2.855-1.77
	c-0.646-0.979-0.829-2.194-0.5-3.32l5-17.149c-5.742-4.521-9.435-11.531-9.435-19.389c0-13.601,11.065-24.666,24.666-24.666
	c13.6,0,24.665,11.065,24.665,24.666c0,6.67-2.661,12.729-6.977,17.174l6.525,23.409c0.299,1.074,0.137,2.225-0.448,3.174
	c-0.585,0.948-1.54,1.61-2.633,1.825l-20.36,4.001C147.476,197.843,147.218,197.867,146.961,197.867z M150.961,187.867v1.138
	l11.346-2.229l-4.566-16.384c-2.11,1.029-4.387,1.767-6.779,2.158V187.867z M135.729,182.466l7.232,0.884v-10.8
	c-1.39-0.228-2.741-0.571-4.043-1.022L135.729,182.466z M146.961,131.543c-9.189,0-16.666,7.477-16.666,16.666
	s7.476,16.665,16.666,16.665c9.189,0,16.665-7.476,16.665-16.665S156.15,131.543,146.961,131.543z M105.662,188.867H49.933
	c-2.209,0-4-1.791-4-4s1.791-4,4-4h55.729c2.209,0,4,1.791,4,4S107.871,188.867,105.662,188.867z M105.662,162.856H49.933
	c-2.209,0-4-1.791-4-4s1.791-4,4-4h55.729c2.209,0,4,1.791,4,4S107.871,162.856,105.662,162.856z M105.662,136.845H49.933
	c-2.209,0-4-1.791-4-4s1.791-4,4-4h55.729c2.209,0,4,1.791,4,4S107.871,136.845,105.662,136.845z M158.519,110.834H49.933
	c-2.209,0-4-1.791-4-4s1.791-4,4-4h108.585c2.209,0,4,1.791,4,4S160.728,110.834,158.519,110.834z M158.519,84.822H49.933
	c-2.209,0-4-1.791-4-4s1.791-4,4-4h108.585c2.209,0,4,1.791,4,4S160.728,84.822,158.519,84.822z M158.519,58.812H49.933
	c-2.209,0-4-1.791-4-4s1.791-4,4-4h108.585c2.209,0,4,1.791,4,4S160.728,58.812,158.519,58.812z M158.519,32.8H49.933
	c-2.209,0-4-1.791-4-4s1.791-4,4-4h108.585c2.209,0,4,1.791,4,4S160.728,32.8,158.519,32.8z"/>
</svg>